<svg xmlns="http://www.w3.org/2000/svg" xmlns:xlink="http://www.w3.org/1999/xlink" width="243" height="243" viewBox="0 0 243 243">
  <defs>
    <radialGradient id="radial-gradient" cx="0.5" cy="0.5" r="0.5" gradientUnits="objectBoundingBox">
      <stop offset="0" stop-color="#48ddc3"/>
      <stop offset="1" stop-color="#eff5f4"/>
    </radialGradient>
  </defs>
  <g id="グループ_1" data-name="グループ 1" transform="translate(-363 -193)">
    <circle id="楕円形_1" data-name="楕円形 1" cx="121.5" cy="121.5" r="121.5" transform="translate(363 193)" fill="url(#radial-gradient)"/>
    <path id="パス_1" data-name="パス 1" d="M36.624,8.528A1.758,1.758,0,0,0,34.68,6.872c-3.636.036-8.676.036-12.132,0-2.772-.036-2.628,3.276-.252,3.348,3.888.108,8.856,0,12.24,0C36.012,10.22,36.624,9.392,36.624,8.528Zm2.3,10.584c1.476-3.528-.288-5.544-3.888-5.58-4.9-.036-10.944,0-15.588.108-2.772.072-2.448,3.492.108,3.384,3.852-.144,10.548-.252,14.22-.18,1.368.036,1.548.612,1.188,1.584C33.348,23,28.776,27.356,21.684,29.264c-2.88.756-1.548,4.32,1.4,3.42C32.016,29.948,36.408,25.124,38.928,19.112Zm38.988-5.58c1.584-2.844-2.124-4.356-3.276-2.124C71,18.464,63.732,25.916,56.5,27.752c-2.988.756-1.836,4.86,1.224,3.888C66,29.012,73.452,21.632,77.916,13.532ZM62.9,16.448a2.128,2.128,0,0,0-.468-2.988A22.832,22.832,0,0,0,56.1,10.724c-2.736-.756-3.636,2.88-1.476,3.384a13.288,13.288,0,0,1,5.328,2.664A1.907,1.907,0,0,0,62.9,16.448Zm51.372-9.864c1.224,1.368,3.24-.9,1.8-2.34a11.49,11.49,0,0,0-3.636-2.052c-1.692-.54-2.988,1.62-1.152,2.34A13.332,13.332,0,0,1,114.276,6.584ZM111,9.788c1.188,1.4,3.276-.792,1.872-2.3a11.136,11.136,0,0,0-3.564-2.16c-1.656-.612-3.1,1.548-1.26,2.3A12.728,12.728,0,0,1,111,9.788ZM102.5,23.72a20.517,20.517,0,0,1,2.16,1.944,1.728,1.728,0,0,0,2.556.108,1.951,1.951,0,0,0,.072-2.736,13.6,13.6,0,0,0-2.592-2.268c1.4-2.052,2.736-4.284,4.068-6.7,1.4-2.556.756-5.148-2.952-5.04-1.728.072-3.708.252-5.472.4q.378-.54.648-.972c1.26-2.088-2.448-4.32-3.708-1.26-1.3,3.1-6.12,9.18-9.612,11.34-2.448,1.512-.324,4.644,2.088,2.988,2.412-1.692,5.724-5.472,8.244-8.784,1.224-.144,4.932-.5,6.372-.54.936-.036,1.08.144.4,1.62a35.381,35.381,0,0,1-3.024,5.148A23.824,23.824,0,0,0,97.212,17.1c-2.52-.72-3.456,2.34-1.44,2.88a15.757,15.757,0,0,1,3.78,1.728,28.03,28.03,0,0,1-12.024,8.208c-2.736.9-1.332,4.284,1.548,3.168A30.977,30.977,0,0,0,102.5,23.72Zm35.568,4.5a18.562,18.562,0,0,1,.936,1.908,1.831,1.831,0,0,0,2.448,1.08,2.1,2.1,0,0,0,1.152-2.628c-1.152-3.24-4.9-6.912-6.624-8.46-2.016-1.8-4.356.72-2.7,2.16a20.528,20.528,0,0,1,2.736,2.952c-2.808.684-6.768,1.548-10.512,2.232a170.748,170.748,0,0,0,6.192-16.74,2,2,0,1,0-3.888-.756c-.9,4.5-4.68,14.472-6.444,18.216-.612.108-1.26.18-1.836.252-2.88.4-2.016,4.068.684,3.636C125.8,31.136,133.428,29.516,138.072,28.22ZM20.1,84.72c-.036.972-.072,2.2-.072,3.384,0,1.008.036,1.98.072,2.844.108,2.016,1.44,3.456,4,3.564,1.692.072,3.672.108,5.688.108,1.764,0,3.6-.036,5.328-.108a3.857,3.857,0,0,0,3.924-3.6c.072-1.116.072-2.232.072-3.348s0-2.232-.072-3.276a3.707,3.707,0,0,0-3.744-3.2c-1.872-.036-3.96-.072-6.012-.072-1.26,0-2.52,0-3.672.036a42.969,42.969,0,0,0,9.036-9.324A3.915,3.915,0,0,0,35.4,69.6c0-1.512-1.368-2.628-3.348-2.628-1.512,0-3.816.072-5.94.108.576-.756.684-1.044.684-1.332a1.993,1.993,0,0,0-1.98-1.764,1.71,1.71,0,0,0-1.44.828A35.109,35.109,0,0,1,11.748,75.4a1.6,1.6,0,0,0-1.008,1.44,1.81,1.81,0,0,0,1.872,1.728c2.2,0,8.712-6.084,11.088-8.64,1.62-.036,3.6-.108,5.22-.108,2.448,0,2.448.108,2.448.468,0,.468-2.2,3.456-5.256,6.3a10.767,10.767,0,0,0-4.68-2.268,1.875,1.875,0,0,0-1.944,1.62,1.356,1.356,0,0,0,.972,1.188,14.983,14.983,0,0,1,2.988,1.692A30.589,30.589,0,0,1,11.82,84.54a1.63,1.63,0,0,0-1.4,1.62A1.8,1.8,0,0,0,12.18,88C13.368,88,17.436,86.232,20.1,84.72Zm15.516,5.328c-.036,1.008-.684,1.4-1.584,1.44-1.44.036-3.024.072-4.572.072-5.436,0-6.012,0-6.048-1.512-.036-.828-.036-1.8-.036-2.7,0-.684,0-1.332.036-1.908A1.572,1.572,0,0,1,25.068,84c1.3-.036,2.808-.072,4.356-.072s3.132.036,4.536.072c1.152.036,1.62.54,1.656,1.4.036.72.036,1.548.036,2.376C35.652,88.572,35.652,89.364,35.616,90.048Zm39.276-18a1.547,1.547,0,0,0,1.62-1.62,1.529,1.529,0,0,0-1.584-1.584h-.036l-7.7.108c2.052-2.484,2.052-3.312,2.052-3.492a1.935,1.935,0,0,0-1.98-1.728,1.65,1.65,0,0,0-1.584,1.116,17.808,17.808,0,0,1-2.124,4.1H59.3a1.531,1.531,0,0,0,.072-.4c0-1.152-2.556-4.5-4.1-4.5a1.756,1.756,0,0,0-1.836,1.476,1.212,1.212,0,0,0,.36.828,14.1,14.1,0,0,1,2.088,2.556l-7.74-.072h-.036a1.529,1.529,0,0,0-1.584,1.584,1.547,1.547,0,0,0,1.62,1.62ZM73.884,86.232V74.6a1.712,1.712,0,0,0-3.42,0v3.96c0,4.212,0,10.044-.036,11.376a1.7,1.7,0,0,1-1.908,1.908,11.847,11.847,0,0,1-2.3-.4,1.477,1.477,0,0,0-.4-.036,1.542,1.542,0,0,0-1.44,1.656c0,1.476,1.008,2.088,4.14,2.088,4.212,0,5.436-2.484,5.436-4.572v-.072Zm-10.26,1.44a1.647,1.647,0,0,0,3.276,0V76.008a1.567,1.567,0,0,0-1.656-1.584,1.538,1.538,0,0,0-1.62,1.584ZM52.1,94.224c-.036-1.44-.036-4.032-.036-6.84h5.616c0,1.008-.036,1.908-.036,2.664-.036,1.548-.576,1.908-1.3,1.908a6.325,6.325,0,0,1-1.116-.144,1,1,0,0,0-.324-.036A1.544,1.544,0,0,0,53.4,93.4c0,.72.324,1.728,3.1,1.728,3.492,0,4.392-2.3,4.392-4.14V88.9c0-.72,0-1.476-.036-2.124v-4.9c0-2.16,0-4.356-.036-5.04a3.044,3.044,0,0,0-3.2-3.132c-.792-.036-1.728-.072-2.7-.072-3.456,0-6.048,0-6.048,3.276,0,2.16-.036,5.58-.036,8.892,0,3.348.036,6.588.036,8.424a1.529,1.529,0,0,0,1.656,1.368A1.416,1.416,0,0,0,52.1,94.26Zm0-14.94V77.628c0-.9.4-1.188,3.132-1.188,1.8,0,2.34.252,2.34,1.188,0,.468.036,1.044.036,1.656Zm5.544,2.664c0,.9.036,1.8.036,2.736H52.068V81.948ZM111.5,94.08a1.527,1.527,0,0,0,1.62-1.62A1.575,1.575,0,0,0,111.5,90.8L99.48,90.84V84.36l7.272.036a1.607,1.607,0,1,0,0-3.2l-7.272.036V75.72l9.72.036a1.607,1.607,0,1,0,0-3.2l-9.72.036V66.18a1.858,1.858,0,1,0-3.708,0v6.408l-4.788-.036q.81-1.782,1.512-3.672a1.6,1.6,0,0,0,.108-.54,1.863,1.863,0,0,0-2.016-1.656,1.632,1.632,0,0,0-1.656,1.224A32.28,32.28,0,0,1,82.524,79.68a1.837,1.837,0,0,0-.468,1.152,1.685,1.685,0,0,0,1.728,1.62,2.04,2.04,0,0,0,1.584-.828,42.193,42.193,0,0,0,4-5.868l6.408-.036v5.508L89,81.192a1.636,1.636,0,0,0-1.692,1.656A1.533,1.533,0,0,0,89,84.4l6.768-.036v6.48L83.5,90.8A1.673,1.673,0,0,0,81.8,92.532,1.533,1.533,0,0,0,83.5,94.08Zm31.9-25.128a1.649,1.649,0,0,0,1.548-1.62,1.729,1.729,0,0,0-.684-1.3,11.894,11.894,0,0,0-4.464-2.124,1.384,1.384,0,0,0-1.44,1.368,1.352,1.352,0,0,0,.864,1.26,12.9,12.9,0,0,1,3.06,1.944A1.681,1.681,0,0,0,143.4,68.952Zm3.312,3.672A1.455,1.455,0,0,0,148.08,71a1.5,1.5,0,0,0-1.44-1.656c-2.88,0-5.94-.036-9.072-.036-.072-1.476-.072-2.88-.108-4.248a1.622,1.622,0,0,0-1.764-1.62,1.687,1.687,0,0,0-1.872,1.512c0,.18.108,3.24.18,4.356-3.384,0-6.768.036-9.936.036-2.484,0-3.636,1.476-3.636,3.384V72.8c.036,1.692.108,3.564.108,5.472,0,4.752-.468,9.9-3.132,14.04a2.02,2.02,0,0,0-.36,1.08,1.633,1.633,0,0,0,1.764,1.512,2.394,2.394,0,0,0,1.98-1.188c2.772-4.5,3.2-9.648,3.276-14.4.792-.036,1.584-.036,2.34-.036,3.1,0,3.1.036,3.1,2.3,0,3.348-.756,4.248-2.7,4.248a7.1,7.1,0,0,1-1.26-.144,1.477,1.477,0,0,0-.4-.036c-.864,0-1.332.828-1.332,1.692,0,1.62,1.044,1.944,2.808,1.944a5.79,5.79,0,0,0,5.868-3.96,15.357,15.357,0,0,0,.36-3.888c0-.9-.036-1.692-.072-2.124a3.37,3.37,0,0,0-3.492-3.06c-.684-.036-1.584-.036-2.484-.036-.936,0-1.872,0-2.736.036V74.1a1.38,1.38,0,0,1,1.476-1.476c2.808,0,5.76-.036,8.748-.036a54.5,54.5,0,0,0,2.7,13.428,18.013,18.013,0,0,1-8.928,6.12,1.757,1.757,0,0,0-1.368,1.692,1.712,1.712,0,0,0,1.764,1.728c.324,0,5.04-.9,10.008-6.156,2.52,5.04,4.9,5.544,5.976,5.544,3.6,0,5.256-5.436,5.256-6.048a1.93,1.93,0,0,0-1.944-1.764,1.52,1.52,0,0,0-1.476,1.152c-.684,1.944-1.188,2.808-1.8,2.808-.144,0-1.476-.288-3.6-4.572,2.088-2.916,4.86-8.532,4.86-9.684A2.046,2.046,0,0,0,143.652,75a1.409,1.409,0,0,0-1.4.972,37.567,37.567,0,0,1-2.88,6.588,48.8,48.8,0,0,1-1.62-10.008c2.988,0,5.976.036,8.928.072Zm-79.488,79.9c-1.764-3.852-4.824-7.236-8.424-11.736-1.188-1.476-1.116-2.556.432-4.1,2.232-2.232,6.048-5.364,7.848-7.56a2.016,2.016,0,1,0-3.2-2.448,88.443,88.443,0,0,1-7.38,8.136c-2.808,2.916-2.808,5.472-.432,8.244a66.392,66.392,0,0,1,7.632,11.7C64.848,157.06,68.34,154.936,67.224,152.524Zm40.932-.324a17.47,17.47,0,0,0,4.536-5.976c1.368-2.7-2.412-4.536-3.456-1.872a12.2,12.2,0,0,1-3.276,5.04c-2.124,1.908-5.22,2.3-5.22-.9,0-1.332.288-2.556.18-3.96-.5-6.084-6.732-4.392-8.028-3.24-.252.216-.36.288-.108-.072.792-1.188,1.512-2.34,2.448-3.672a51.82,51.82,0,0,1,3.816-4.788c.4-.468.756-.864,1.044-1.224a9.562,9.562,0,0,0,.828-1.26c1.188-2.268-2.16-4.068-3.348-1.944-.4.72-1.368,1.98-1.98,2.988-1.764,2.808-3.636,5.868-5.724,9.108a63.452,63.452,0,0,0-5.76,10.908,1.9,1.9,0,0,0,2.124,2.772c.72-.108,1.512-.288,2.16-3.06a18.925,18.925,0,0,1,2.268-4.9c1.008-1.8,6.48-5.184,6.66-1.188.072,1.62-.18,2.628-.18,4.284C97.068,156.052,104.268,155.26,108.156,152.2Z" transform="translate(405 239)" fill="#171313"/>
  </g>
</svg>
